<svg xmlns="http://www.w3.org/2000/svg" data-name="Layer 1" viewBox="0 0 128 128"><path d="M0 108.6a2 2 0 0 0 1.61 2.4 1.81 1.81 0 0 0 .4 0 2 2 0 0 0 2-1.6c0-.12 2.72-12.22 21.58-10.48a2 2 0 0 0 1.41-.47A11.71 11.71 0 0 1 33.84 96c-1.45 4.26-2.43 8.93-1.51 12.41.06.84.14 6.37-7.51 12A2 2 0 0 0 26 124a1.84 1.84 0 0 0 .72-.14c.17-.06 16.77-6.4 26.17-.19a2 2 0 0 0 2.77-.57c.47-.7 5.6-2.95 7.6-4.24 2.51 1.25 4.15 2.08 4.2 2.08 1.56 0 3 .08 4.29.08 4.24 0 7.11-.29 8.59-.86l10-.49a1.93 1.93 0 0 0 1-.33c.17-.12 5.94 5.66 7 5.46 2.09-.39 10.06 1.58 15 3.11a2 2 0 0 0 .59.09 2 2 0 0 0 1.27-.45 2 2 0 0 0 .72-1.75c-.68-6.67-7.35-17-10.23-21.14 5 1.28 11.12 3.65 12.58 6.47.39 1.11 3.61 10.24 4.7 15.29a2 2 0 0 0 2 1.58 1.51 1.51 0 0 0 .42 0 2 2 0 0 0 1.53-2.37c-1.21-5.62-4.73-15.48-4.88-15.9a1.08 1.08 0 0 0-.08-.19c-2.84-5.9-14.72-8.67-18-9.33.33-.71.66-1.45 1-2.2a3.39 3.39 0 0 0 .55 0c4.41 0 7.27-.92 9.12-2.2a3.44 3.44 0 0 0 .84.1 4.14 4.14 0 0 0 3.1-1.43c2.07-2.38 2.83-4.44 2.9-6.2l.36-.14c4.65-2.05 5.87-4.93 6.08-7 .4-3.91-2.55-6.84-4-8a10.85 10.85 0 0 0 1.66-1.71A4 4 0 0 0 122.4 65a3.94 3.94 0 0 0-2.2.67 3 3 0 0 1-1.62.57 3.35 3.35 0 0 1-1.87-.74c-1.64-2.93 1.52-6.88 1.55-6.92a19.68 19.68 0 0 0 2.06-23.35 16.32 16.32 0 0 0-11.45-15.81c-1.89-8.1-6.6-10.82-9.72-11.73a13.11 13.11 0 0 0-4.74-5C91.54 1 87.3 0 82.78 0c-2.93 0-8.4.44-12.51 3.31A21.23 21.23 0 0 0 68.51 2 10.43 10.43 0 0 0 62.75.42a24.68 24.68 0 0 0-6.43 1.11c-.54.14-1.07.29-1.58.41-1 .22-1.92.42-2.94.64a64.12 64.12 0 0 0-6.73 1.67C37 6.83 31.55 11.32 28.87 17.57A14.21 14.21 0 0 0 27.64 25a5.59 5.59 0 0 1-1.5 4.9 2.9 2.9 0 0 0-.71.69 2.75 2.75 0 0 1-2.4 1 7.53 7.53 0 0 1-2.53-.47 4.12 4.12 0 0 0-1.53-.3 4 4 0 0 0-3.86 5 4.42 4.42 0 0 0-.77.73 4 4 0 0 0-.79 3.4 8.77 8.77 0 0 0-5.67 3.45c-2.88 3.89-1.7 9.17-1.56 9.76a4 4 0 0 0 1.31 2.13c0 .29.06.56.1.81l-.19.08A7.14 7.14 0 0 0 3.13 61a7 7 0 0 0-.07 3l-.15.08A4 4 0 0 0 1 66.51C-.61 72-.27 76.86 2 81.06a19.62 19.62 0 0 0 11 8.82 4 4 0 0 0 3.5-.62 8.51 8.51 0 0 0 .85.4 4 4 0 0 0 1.52.3 5 5 0 0 0 .67 0 14.34 14.34 0 0 0 6.69 4.24c-.46.26-.84.52-1.14.73C3.46 93.25.08 108.44 0 108.6Zm29-49.28c-2.76 2-3.07 5.78-3.07 5.82A2 2 0 0 1 24 67h-.14A2 2 0 0 1 22 64.87c0-.22.4-5.6 4.65-8.74 3-2.2 6.93-2.73 11.8-1.58a2 2 0 0 1-.92 3.9c-3.64-.87-6.53-.57-8.46.87Zm44.66-36.21a2 2 0 0 1-2 .84 2 2 0 0 1-.82.12c-5.44-.39-9.21.88-11.86 4a4.67 4.67 0 0 0-1.36 3.89c0 .42.09.92.16 1.46.33 2.52.79 6-1.43 8.06a2 2 0 0 1-2.82-.09 2 2 0 0 1 .08-2.83c.72-.67.4-3.14.2-4.61-.08-.66-.16-1.26-.19-1.76A8.66 8.66 0 0 1 56 25.45 14.64 14.64 0 0 1 62.54 21c-7.14 0-12.85 5.17-13.18 5.47a2 2 0 0 1-2.72-2.93c4.56-4.25 16-10.38 26.49-3.21a2 2 0 0 1 .53 2.78Zm4.71 10.18a2 2 0 0 1-1.15 2.58 2 2 0 0 1-2.59-1.16C74.38 34 73.5 34 72.9 34v.15A2 2 0 0 1 70.74 36a2 2 0 0 1-1.84-2.13c.14-2.07 1.18-3.51 2.66-3.72 1.87-.4 5.53-.22 6.81 3.14Zm-31.06 3.65a2 2 0 0 1 3.39 2.12C45.62 47.15 38.6 48 35.88 48a8.94 8.94 0 0 1-1.13-.06 2 2 0 0 1 .5-4c.32.06 7.19.76 12.06-7Zm48.13-17.19a2 2 0 0 1 2.81-.31c.35.28 8.75 7.07 8.75 15.56a2 2 0 0 1-4 0c0-6.59-7.17-12.38-7.25-12.44a2 2 0 0 1-.31-2.81Zm7 25.19c.61 2.16 1.19 8.33 1.39 13.55a2 2 0 0 0 .25.89 7.61 7.61 0 0 1 .81 2.48 10.13 10.13 0 0 0-6.6-1.54 16.66 16.66 0 0 0-4.45 1.5c-.49.22-1 .45-1.47.64l-.22.09c-1.64.65-4.1 1.62-5.54 1.22 0 0-.28-.24-.42-1a7.15 7.15 0 0 1-.19-1.33 2 2 0 0 0-2.07-3.32c-1.17.43-2.42 1.71-1.72 5.39a5.16 5.16 0 0 0 2.15 3.59l-1.12 2.08a2 2 0 0 0-.24 1.27c.57 3.46 2 13 2 15.5a2 2 0 0 0 2 2 2 2 0 0 0 2-2 87.26 87.26 0 0 0-1.1-10.28 13.47 13.47 0 0 0 4.75 1 7.86 7.86 0 0 0 5.77-2.33 2 2 0 1 0-2.84-2.82c-2.68 2.7-7.71-.17-8.41-.59 0-.19-.06-.37-.09-.53l.83-1.4a1.6 1.6 0 0 0 .49 0l2.66-.28A2 2 0 0 0 93 70.24a2 2 0 0 0 2-1.55l2.14.22 3.79 2.71A1.94 1.94 0 0 0 102 72a2 2 0 0 0 1.17-3.63l-4.23-3A2 2 0 0 0 98 65l-1.17-.12a8.51 8.51 0 0 1 2-.58c1.63-.24 4.59.71 5.35 2.5a1.86 1.86 0 0 0 .53.7l-.24 1.71a26.51 26.51 0 0 0-.4 8.26c2.93 17.33-12.06 34-12.21 34.2a2.09 2.09 0 0 0-.52 1.45c0 .8-.93 1.92-1.79 2.61l-6.84.33a4.64 4.64 0 0 0-.35-4.08 2 2 0 1 0-3.43 2.02c.34.57-.63 1.89-1.27 2.47a2.62 2.62 0 0 0-.22.25 79.71 79.71 0 0 1-9.53.19c-18.84-6.69-21.17-29.43-21.2-29.65a2 2 0 0 0-2.14-1.82 7.21 7.21 0 0 1-5.69-1.74c-2.24-2-3.18-5.38-3.58-7.72h1a11.56 11.56 0 0 0 8.51-3.61c3.06-3.23 5-9.27 3.74-14 2.19-.99 4.7-3.37 5.45-7.85a20 20 0 0 0 4.81-2.44A30.38 30.38 0 0 0 69 50a17.22 17.22 0 0 0 9-2.29 2 2 0 0 0 .71-2.71c-.57-.94 1.8-7.87 2.88-8.14A2 2 0 0 0 83 34.4a2 2 0 0 1 .14-1.3 2 2 0 0 1 1-.87c1.37-.61 2.57 0 4.78 1.57.36.26.74.51 1.12.76a2 2 0 0 0 0 1.07c.1.11 3.07 8.57 12.35 9.31ZM91.9 23.49a2 2 0 0 1-2.51 1.29c-7.51-2.42-9.34 1.48-9.52 1.94A2 2 0 0 1 78 28a1.94 1.94 0 0 1-.71-.13 2 2 0 0 1-1.17-2.54c0-.08 3.09-8 14.49-4.34a2 2 0 0 1 1.29 2.5ZM69.83 4c.61 0 14.81-1.12 18.08 9.35a2 2 0 0 1-1.31 2.51 2.08 2.08 0 0 1-.6.14 2 2 0 0 1-1.91-1.4C81.77 7.15 70.28 8 70.17 8A2 2 0 0 1 68 6.21 2 2 0 0 1 69.83 4ZM30.62 34.56c2.18-2.09 3-5.08 3.94-8.24 1.09-3.83 2.34-8.17 6.29-11.06C47.38 10.48 55.3 9 64.38 10.71a2 2 0 1 1-.76 3.93c-8.06-1.56-14.73-.31-20.41 3.85-2.84 2.08-3.8 5.41-4.81 8.93s-2.05 7.19-5 10A2 2 0 0 1 32 38a2 2 0 0 1-1.39-3.44ZM20.67 77a2 2 0 0 1-1.75 1 1.91 1.91 0 0 1-1-.26 12.6 12.6 0 0 1-5.56-7.46c-1-3.87-.07-8.15 2.73-12.73.68-2.16 5.39-16 14.55-17.52a2 2 0 1 1 .7 3.97C24.28 45 20 55.14 18.87 59a1.94 1.94 0 0 1-.22.49c-2.31 3.7-3.11 7-2.39 9.83a8.61 8.61 0 0 0 3.64 5 2 2 0 0 1 .77 2.68ZM26 84a1.94 1.94 0 0 1-1-.29 5.53 5.53 0 0 1-3-3.78 4.15 4.15 0 0 1 1-3.25l3 2.64.06-.08c0 .22.25.59 1 1A2 2 0 0 1 26 84Z"/><path d="M77.87 90.54c-.73.23-3.7-.11-6.55-.73a1.21 1.21 0 0 1-.32-.75 2.83 2.83 0 0 1 .75-1.68 2 2 0 0 0-2.88-2.78A6.8 6.8 0 0 0 67 89.2a5.45 5.45 0 0 0 2 3.93 2 2 0 0 0 .87.45c1.38.32 5.59 1.23 8.19 1A10.11 10.11 0 0 0 83.11 96a8.07 8.07 0 0 0 4.64-1.45 6.74 6.74 0 0 0 4.39-2.2 4.23 4.23 0 0 0 .76-3.57 2 2 0 1 0-3.92.81v.31a3.64 3.64 0 0 1-2.07.71 2 2 0 0 0-1.14.43c-2.75 2.16-5.73.06-6.05-.18a2 2 0 0 0-1.85-.32zm13.59 6.18-.94 1.14L84.3 97a2 2 0 0 0-1.5.4l-.49.38-2.06-.69a2 2 0 0 0-.82-.1L69 97.94l-.81-.59a2 2 0 0 0-2.35 3.23l1.42 1a2 2 0 0 0 1.36.38l10.77-1 2.67.9a2 2 0 0 0 1.86-.31l.67-.52 6.49.92h.28a2 2 0 0 0 1.54-.73l1.65-2a2 2 0 0 0-3.08-2.55z"/><path d="m85.91 102.32-1.68 1.09-4.11-.5a2 2 0 0 0-.69 0l-3.94.9-1.27-1a2 2 0 1 0-2.44 3.19l2 1.56A2 2 0 0 0 75 108a2 2 0 0 0 .45-.05l4.52-1 4.48.55a2 2 0 0 0 1.33-.31l2.29-1.48a2 2 0 1 0-2.17-3.36zM67.85 77.9a2 2 0 0 0-1.69-3.62l-.14.06c-3.09 1.37-6.33-.27-7.85-1.25a6.92 6.92 0 0 1 2.84-1 2 2 0 0 0 4 .11 9.79 9.79 0 0 1 2.94.8 6.45 6.45 0 0 1 2.34 2 2 2 0 1 0 3.47-2 9.84 9.84 0 0 0-3.3-3.18 6.44 6.44 0 0 0 1.09-.2c1-.28 2.71-1.17 3.27-4.11.7-3.68-.55-5-1.72-5.39a2 2 0 0 0-2.1 3.32 6.44 6.44 0 0 1-.14 1.32c-.15.77-.38 1-.41 1-1.44.4-3.91-.58-5.54-1.22l-.22-.09c-.49-.2-1-.42-1.47-.64a16.52 16.52 0 0 0-4.45-1.5c-3.43-.49-8.11 1.36-9.6 4.9a2 2 0 1 0 3.68 1.56c.76-1.79 3.72-2.73 5.35-2.5a13.36 13.36 0 0 1 3.38 1.19l1.26.54h-.74a10.51 10.51 0 0 0-7.54 2.92 2 2 0 0 0-.36 2.24 2 2 0 0 0 .51 2.37 15 15 0 0 0 8.78 3.35 10.12 10.12 0 0 0 4.13-.88z"/></svg>