<svg xmlns="http://www.w3.org/2000/svg" viewBox="0 0 512 512" style="enable-background:new 0 0 512 512" xml:space="preserve"><path d="m357.225 231.523-28.49-23.484 22.73-45.609a13.772 13.772 0 0 0-20.428-17.281l-27.827 20.244c-20.463-30.995-55.586-51.499-95.425-51.499-65.137 0-111.058 45.664-114.267 113.634-1.613 34.151-7.628 60.413-14.857 80.614-.809.244-1.618.487-2.419.737C24.939 324.77 0 343.442 0 365.958c0 22.518 24.653 41.19 75.955 57.082 12.263 3.798 26.326 7.205 38.377 10.04v63.861c0 7.606 6.74 13.773 14.346 13.773h84.357c7.606 0 13.773-6.167 13.773-13.773s-6.167-13.772-13.773-13.772h-14.346v-42.328c30.988-3.658 57.373-17.396 72.457-37.725 6.652-8.964 10.941-18.944 12.352-29.237 19.609-32.76 33.09-75.055 37.208-117.956h27.759a13.77 13.77 0 0 0 12.962-9.119 13.78 13.78 0 0 0-4.202-15.281zM183.05 414.307c-20.831 0-61.408-6.038-98.659-17.577-47.198-14.621-56.846-27.989-56.846-30.771 0-2.779 9.648-16.148 56.848-30.77 37.251-11.54 77.828-17.577 98.659-17.577 39.894 0 73.597 22.139 73.597 48.347 0 7.206-2.469 14.184-7.336 20.743-12.445 16.769-38.454 27.605-66.263 27.605zm24.734-272.868c47.827 0 86.738 38.911 86.738 86.738 0 36.029-7.587 72.889-20.628 104.079-5.194-7.933-12.276-15.182-21.084-21.447-18.813-13.375-43.587-20.741-69.759-20.741-18.932 0-46.036 3.768-72.836 9.806 5.373-19.404 9.484-42.807 10.817-71.049 2.545-53.902 35.787-87.386 86.752-87.386zm-65.908 296.737c10.329 1.613 20.659 2.744 29.267 3.293v41.7h-29.267v-44.993z"/><path style="fill:#ffb8a7" d="M110.216 299.874c26.798-6.038 53.902-9.806 72.836-9.806 26.173 0 50.948 7.367 69.76 20.741 8.808 6.265 15.89 13.514 21.084 21.447 13.039-31.19 20.628-68.05 20.628-104.079 0-47.827-38.911-86.738-86.738-86.738-50.965 0-84.207 33.484-86.753 87.387-1.334 28.24-5.444 51.643-10.817 71.048zM242.3 199.684c7.606 0 13.773 6.167 13.773 13.773s-6.167 13.772-13.773 13.772-13.773-6.167-13.773-13.773 6.167-13.772 13.773-13.772z"/><path style="fill:#ff5f7b" d="M249.312 386.701c4.867-6.559 7.336-13.537 7.336-20.743 0-26.207-33.703-48.347-73.597-48.347-20.831 0-61.408 6.038-98.659 17.577-47.198 14.621-56.846 27.991-56.846 30.77 0 2.78 9.648 16.15 56.848 30.771 37.251 11.54 77.828 17.577 98.659 17.577 27.806.001 53.815-10.835 66.259-27.605z"/><circle cx="242.293" cy="213.457" r="13.773"/><path style="fill:#d21e1e" d="M477.414 191.276c-1.326-.424-2.569-.618-3.727-.618-2.934 0-5.323 1.252-7.098 3.216a3.179 3.179 0 0 1-2.372 1.066 3.243 3.243 0 0 1-2.333-1c-1.842-1.901-4.156-3.233-7.062-3.233-1.062 0-2.202.177-3.429.57-7.527 2.408-15.406 18.562 13.012 36.693 28.415-18.13 20.534-34.285 13.009-36.694z"/><path d="M511.659 196.961c-1.947-14.988-12.094-27.517-25.851-31.92-4.011-1.281-8.085-1.928-12.122-1.928-3.297 0-6.516.424-9.601 1.246a36.321 36.321 0 0 0-9.262-1.196c-3.942 0-7.917.63-11.815 1.876-13.766 4.405-23.916 16.933-25.863 31.923-1.501 11.565.714 33.987 32.441 54.231a27.528 27.528 0 0 0 14.816 4.325 27.513 27.513 0 0 0 14.816-4.325c31.727-20.245 33.942-42.667 32.441-54.232zm-47.255 31.01c-28.418-18.132-20.538-34.287-13.012-36.693 1.227-.393 2.367-.57 3.429-.57 2.906 0 5.22 1.331 7.062 3.233a3.24 3.24 0 0 0 2.333 1c.866 0 1.732-.355 2.372-1.066 1.775-1.966 4.164-3.216 7.098-3.216 1.159 0 2.403.195 3.727.618 7.526 2.408 15.407 18.563-13.009 36.694z"/><path style="fill:#d21e1e" d="M430.498 108.764c60.876-38.842 43.995-73.447 27.874-78.607-2.837-.906-5.502-1.326-7.986-1.326-6.433 0-11.645 2.806-15.475 7.194-1.302 1.489-3.13 2.278-4.936 2.278-1.592 0-3.169-.611-4.352-1.895-4.028-4.362-9.14-7.473-15.646-7.473-2.274 0-4.719.38-7.348 1.221-16.126 5.16-33.009 39.764 27.869 78.608z"/><path d="M445.315 131.984c19.767-12.612 34.495-26.3 43.779-40.689 11.88-18.416 12.779-34.583 11.44-44.904-2.605-20.068-15.857-36.738-33.762-42.469-5.483-1.751-10.989-2.636-16.384-2.636-7.219 0-14.136 1.57-20.426 4.559-6.215-2.942-12.938-4.455-19.984-4.455-5.191 0-10.483.85-15.732 2.527-17.92 5.733-31.176 22.404-33.782 42.474-1.339 10.321-.444 26.488 11.44 44.904 9.284 14.389 24.012 28.079 43.779 40.689a27.53 27.53 0 0 0 14.818 4.325 27.509 27.509 0 0 0 14.814-4.325zM402.629 30.157c2.629-.84 5.073-1.221 7.348-1.221 6.504 0 11.617 3.111 15.646 7.473a5.858 5.858 0 0 0 4.352 1.895c1.806 0 3.634-.788 4.936-2.278 3.832-4.388 9.042-7.194 15.475-7.194 2.482 0 5.147.418 7.986 1.326 16.119 5.16 33.002 39.765-27.874 78.607-60.878-38.845-43.995-73.449-27.869-78.608z"/></svg>