<svg width="127" height="20" viewBox="0 0 127 20" fill="none" xmlns="http://www.w3.org/2000/svg">
<path d="M2.43773 9.70788V15H0.655119V1.48188H5.64085C7.12017 1.48188 8.27763 1.85945 9.11323 2.61458C9.95501 3.36972 10.3759 4.36934 10.3759 5.61345C10.3759 6.92565 9.9643 7.93765 9.14108 8.64946C8.32405 9.35507 7.15112 9.70788 5.62228 9.70788H2.43773ZM2.43773 8.25023H5.64085C6.59405 8.25023 7.32443 8.0274 7.83198 7.58175C8.33952 7.12991 8.5933 6.48 8.5933 5.63202C8.5933 4.82737 8.33952 4.18365 7.83198 3.70086C7.32443 3.21807 6.6281 2.96739 5.74298 2.94882H2.43773V8.25023ZM16.4201 15.1857C15.0583 15.1857 13.9504 14.74 13.0962 13.8487C12.2421 12.9512 11.815 11.7535 11.815 10.2557V9.93999C11.815 8.94346 12.0038 8.05525 12.3813 7.27536C12.7651 6.48928 13.2974 5.87651 13.9783 5.43705C14.6653 4.9914 15.4081 4.76857 16.2065 4.76857C17.5125 4.76857 18.5276 5.19875 19.2518 6.0591C19.976 6.91946 20.3381 8.15119 20.3381 9.7543V10.4692H13.5326C13.5574 11.4595 13.8452 12.2611 14.3961 12.8739C14.9531 13.4804 15.6587 13.7837 16.5129 13.7837C17.1195 13.7837 17.6332 13.6599 18.0541 13.4124C18.475 13.1648 18.8433 12.8367 19.159 12.4282L20.2081 13.2452C19.3663 14.5389 18.1036 15.1857 16.4201 15.1857ZM16.2065 6.1798C15.5133 6.1798 14.9315 6.43358 14.4611 6.94112C13.9906 7.44248 13.6997 8.1481 13.5883 9.05797H18.6205V8.92799C18.571 8.05525 18.3357 7.38059 17.9149 6.90399C17.494 6.4212 16.9245 6.1798 16.2065 6.1798ZM24.6646 2.52174V4.95426H26.5401V6.28193H24.6646V12.5118C24.6646 12.9141 24.7482 13.2174 24.9153 13.4216C25.0824 13.6197 25.3671 13.7188 25.7695 13.7188C25.9675 13.7188 26.2399 13.6816 26.5865 13.6073V15C26.1347 15.1238 25.6952 15.1857 25.2681 15.1857C24.5006 15.1857 23.9219 14.9536 23.5319 14.4894C23.142 14.0251 22.947 13.3659 22.947 12.5118V6.28193H21.118V4.95426H22.947V2.52174H24.6646ZM32.8071 8.97441C31.2782 8.53495 30.1641 7.99645 29.4647 7.35892C28.7714 6.7152 28.4248 5.92293 28.4248 4.98211C28.4248 3.9175 28.8488 3.03857 29.6968 2.34534C30.551 1.64591 31.6589 1.2962 33.0206 1.2962C33.949 1.2962 34.7754 1.47569 35.4995 1.83469C36.2299 2.19369 36.7932 2.68886 37.1893 3.3202C37.5916 3.95154 37.7928 4.64168 37.7928 5.39063H36.0009C36.0009 4.5736 35.7409 3.93297 35.221 3.46875C34.7011 2.99834 33.9676 2.76313 33.0206 2.76313C32.1417 2.76313 31.4546 2.95811 30.9595 3.34805C30.4705 3.73181 30.226 4.26721 30.226 4.95426C30.226 5.50513 30.4581 5.97245 30.9223 6.35621C31.3927 6.73377 32.1881 7.08039 33.3084 7.39606C34.4349 7.71173 35.3139 8.06144 35.9452 8.4452C36.5827 8.82277 37.0531 9.26532 37.3564 9.77287C37.6659 10.2804 37.8207 10.8777 37.8207 11.5648C37.8207 12.6603 37.3936 13.5393 36.5394 14.2015C35.6852 14.8576 34.5433 15.1857 33.1135 15.1857C32.185 15.1857 31.3185 15.0093 30.5138 14.6565C29.7092 14.2975 29.0871 13.8085 28.6476 13.1895C28.2144 12.5706 27.9977 11.8681 27.9977 11.082H29.7896C29.7896 11.899 30.0898 12.5458 30.6902 13.0224C31.2968 13.4928 32.1045 13.728 33.1135 13.728C34.0543 13.728 34.7754 13.5362 35.2767 13.1524C35.7781 12.7686 36.0288 12.2456 36.0288 11.5833C36.0288 10.921 35.7966 10.4104 35.3324 10.0514C34.8682 9.68622 34.0264 9.32722 32.8071 8.97441ZM42.175 2.52174V4.95426H44.0505V6.28193H42.175V12.5118C42.175 12.9141 42.2586 13.2174 42.4257 13.4216C42.5928 13.6197 42.8776 13.7188 43.2799 13.7188C43.478 13.7188 43.7503 13.6816 44.0969 13.6073V15C43.6451 15.1238 43.2056 15.1857 42.7785 15.1857C42.011 15.1857 41.4323 14.9536 41.0423 14.4894C40.6524 14.0251 40.4574 13.3659 40.4574 12.5118V6.28193H38.6284V4.95426H40.4574V2.52174H42.175ZM45.4246 9.88428C45.4246 8.90014 45.6165 8.01502 46.0002 7.22894C46.3902 6.44286 46.9287 5.83628 47.6157 5.40919C48.309 4.98211 49.0981 4.76857 49.9832 4.76857C51.3511 4.76857 52.456 5.24207 53.2978 6.18909C54.1458 7.1361 54.5697 8.39568 54.5697 9.96784V10.0885C54.5697 11.0665 54.381 11.9454 54.0034 12.7253C53.632 13.499 53.0966 14.1025 52.3972 14.5358C51.704 14.9691 50.9055 15.1857 50.0018 15.1857C48.6401 15.1857 47.5353 14.7122 46.6873 13.7652C45.8455 12.8182 45.4246 11.5648 45.4246 10.005V9.88428ZM47.1515 10.0885C47.1515 11.2027 47.4084 12.0971 47.9221 12.7717C48.442 13.4464 49.1353 13.7837 50.0018 13.7837C50.8745 13.7837 51.5678 13.4433 52.0815 12.7625C52.5953 12.0754 52.8521 11.116 52.8521 9.88428C52.8521 8.78253 52.5891 7.89123 52.063 7.21037C51.543 6.52332 50.8498 6.1798 49.9832 6.1798C49.1353 6.1798 48.4513 6.51713 47.9314 7.1918C47.4115 7.86647 47.1515 8.83205 47.1515 10.0885ZM61.5795 6.49547C61.3195 6.45214 61.0379 6.43048 60.7346 6.43048C59.6081 6.43048 58.8437 6.91018 58.4413 7.86957V15H56.7237V4.95426H58.3949L58.4228 6.11481C58.986 5.21732 59.7845 4.76857 60.8182 4.76857C61.1524 4.76857 61.4062 4.8119 61.5795 4.89855V6.49547ZM66.6209 12.4839L68.9606 4.95426H70.7989L66.7602 16.5505C66.135 18.2217 65.1416 19.0573 63.7799 19.0573L63.4549 19.0294L62.8143 18.9087V17.5161L63.2785 17.5532C63.8604 17.5532 64.3122 17.4356 64.6341 17.2004C64.9621 16.9652 65.2314 16.535 65.4418 15.9099L65.8225 14.8886L62.2387 4.95426H64.1141L66.6209 12.4839ZM76.6017 9.88428C76.6017 8.90014 76.7936 8.01502 77.1773 7.22894C77.5673 6.44286 78.1057 5.83628 78.7928 5.40919C79.486 4.98211 80.2752 4.76857 81.1603 4.76857C82.5282 4.76857 83.6331 5.24207 84.4749 6.18909C85.3228 7.1361 85.7468 8.39568 85.7468 9.96784V10.0885C85.7468 11.0665 85.558 11.9454 85.1805 12.7253C84.8091 13.499 84.2737 14.1025 83.5743 14.5358C82.881 14.9691 82.0826 15.1857 81.1789 15.1857C79.8172 15.1857 78.7123 14.7122 77.8644 13.7652C77.0226 12.8182 76.6017 11.5648 76.6017 10.005V9.88428ZM78.3286 10.0885C78.3286 11.2027 78.5854 12.0971 79.0992 12.7717C79.6191 13.4464 80.3123 13.7837 81.1789 13.7837C82.0516 13.7837 82.7449 13.4433 83.2586 12.7625C83.7723 12.0754 84.0292 11.116 84.0292 9.88428C84.0292 8.78253 83.7661 7.89123 83.24 7.21037C82.7201 6.52332 82.0269 6.1798 81.1603 6.1798C80.3123 6.1798 79.6284 6.51713 79.1085 7.1918C78.5885 7.86647 78.3286 8.83205 78.3286 10.0885ZM89.5256 4.95426L89.5813 6.21694C90.3488 5.25136 91.3515 4.76857 92.5894 4.76857C94.7125 4.76857 95.7833 5.96626 95.8019 8.36164V15H94.0842V8.35236C94.078 7.62817 93.9109 7.09277 93.5829 6.74615C93.261 6.39953 92.7566 6.22622 92.0695 6.22622C91.5124 6.22622 91.0235 6.37477 90.6026 6.67188C90.1817 6.96898 89.8536 7.35892 89.6184 7.84171V15H87.9008V4.95426H89.5256ZM100.258 15H98.5408V0.739131H100.258V15ZM104.882 15H103.164V4.95426H104.882V15ZM103.025 2.28963C103.025 2.0111 103.109 1.77589 103.276 1.58401C103.449 1.39214 103.703 1.2962 104.037 1.2962C104.371 1.2962 104.625 1.39214 104.798 1.58401C104.972 1.77589 105.058 2.0111 105.058 2.28963C105.058 2.56816 104.972 2.80027 104.798 2.98596C104.625 3.17165 104.371 3.26449 104.037 3.26449C103.703 3.26449 103.449 3.17165 103.276 2.98596C103.109 2.80027 103.025 2.56816 103.025 2.28963ZM109.264 4.95426L109.32 6.21694C110.087 5.25136 111.09 4.76857 112.328 4.76857C114.451 4.76857 115.522 5.96626 115.541 8.36164V15H113.823V8.35236C113.817 7.62817 113.65 7.09277 113.322 6.74615C113 6.39953 112.495 6.22622 111.808 6.22622C111.251 6.22622 110.762 6.37477 110.341 6.67188C109.92 6.96898 109.592 7.35892 109.357 7.84171V15H107.639V4.95426H109.264ZM122.3 15.1857C120.938 15.1857 119.83 14.74 118.976 13.8487C118.122 12.9512 117.695 11.7535 117.695 10.2557V9.93999C117.695 8.94346 117.883 8.05525 118.261 7.27536C118.645 6.48928 119.177 5.87651 119.858 5.43705C120.545 4.9914 121.288 4.76857 122.086 4.76857C123.392 4.76857 124.407 5.19875 125.131 6.0591C125.856 6.91946 126.218 8.15119 126.218 9.7543V10.4692H119.412C119.437 11.4595 119.725 12.2611 120.276 12.8739C120.833 13.4804 121.538 13.7837 122.392 13.7837C122.999 13.7837 123.513 13.6599 123.934 13.4124C124.355 13.1648 124.723 12.8367 125.038 12.4282L126.088 13.2452C125.246 14.5389 123.983 15.1857 122.3 15.1857ZM122.086 6.1798C121.393 6.1798 120.811 6.43358 120.341 6.94112C119.87 7.44248 119.579 8.1481 119.468 9.05797H124.5V8.92799C124.45 8.05525 124.215 7.38059 123.794 6.90399C123.373 6.4212 122.804 6.1798 122.086 6.1798Z" fill="white"/>

</svg>
