<svg width="82" height="52" viewBox="0 0 82 52" fill="none" xmlns="http://www.w3.org/2000/svg">
<path d="M11.578 16.244H7.96632V14.7864H11.578C12.2774 14.7864 12.8437 14.6749 13.277 14.4521C13.7103 14.2293 14.0259 13.9198 14.224 13.5237C14.4283 13.1275 14.5304 12.6757 14.5304 12.1681C14.5304 11.7039 14.4283 11.2676 14.224 10.859C14.0259 10.4505 13.7103 10.1225 13.277 9.87489C12.8437 9.62112 12.2774 9.49423 11.578 9.49423H8.38412V21.5454H6.59222V8.02729H11.578C12.5992 8.02729 13.4627 8.2037 14.1683 8.55651C14.8739 8.90931 15.4093 9.39829 15.7745 10.0234C16.1397 10.6424 16.3223 11.3511 16.3223 12.1496C16.3223 13.0161 16.1397 13.7558 15.7745 14.3686C15.4093 14.9813 14.8739 15.4486 14.1683 15.7705C13.4627 16.0862 12.5992 16.244 11.578 16.244ZM22.3665 21.7311C21.667 21.7311 21.0326 21.6135 20.4631 21.3783C19.8999 21.1369 19.414 20.7996 19.0055 20.3663C18.6032 19.933 18.2937 19.4193 18.077 18.8251C17.8604 18.2309 17.7521 17.581 17.7521 16.8753V16.4854C17.7521 15.6684 17.8728 14.9411 18.1142 14.3036C18.3556 13.6598 18.6836 13.1152 19.0983 12.6695C19.513 12.2239 19.9835 11.8865 20.5096 11.6575C21.0357 11.4285 21.5804 11.314 22.1436 11.314C22.8616 11.314 23.4806 11.4378 24.0005 11.6854C24.5266 11.9329 24.9568 12.2796 25.291 12.7252C25.6253 13.1647 25.8729 13.6846 26.0338 14.285C26.1947 14.8792 26.2752 15.5291 26.2752 16.2347V17.0053H18.7734V15.6034H24.5576V15.4734C24.5328 15.0277 24.44 14.5945 24.279 14.1736C24.1243 13.7527 23.8767 13.4061 23.5363 13.1337C23.1959 12.8614 22.7316 12.7252 22.1436 12.7252C21.7537 12.7252 21.3947 12.8088 21.0666 12.9759C20.7386 13.1368 20.457 13.3782 20.2218 13.7001C19.9865 14.0219 19.804 14.415 19.674 14.8792C19.544 15.3434 19.479 15.8788 19.479 16.4854V16.8753C19.479 17.3519 19.544 17.8007 19.674 18.2216C19.8101 18.6363 20.0051 19.0015 20.2589 19.3171C20.5189 19.6328 20.8314 19.8804 21.1966 20.0599C21.568 20.2394 21.9889 20.3292 22.4593 20.3292C23.0659 20.3292 23.5796 20.2054 24.0005 19.9578C24.4214 19.7102 24.7897 19.379 25.1054 18.9643L26.1452 19.7907C25.9286 20.1187 25.6531 20.4313 25.3189 20.7284C24.9847 21.0255 24.573 21.2669 24.0841 21.4526C23.6013 21.6383 23.0287 21.7311 22.3665 21.7311ZM32.4865 11.4997V12.8181H27.0551V11.4997H32.4865ZM28.8934 9.05787H30.611V19.0572C30.611 19.3976 30.6636 19.6545 30.7689 19.8278C30.8741 20.0011 31.0102 20.1156 31.1774 20.1713C31.3445 20.227 31.524 20.2549 31.7159 20.2549C31.8582 20.2549 32.0068 20.2425 32.1615 20.2177C32.3224 20.1868 32.4431 20.162 32.5236 20.1435L32.5329 21.5454C32.3967 21.5887 32.2172 21.629 31.9944 21.6661C31.7778 21.7094 31.5147 21.7311 31.2052 21.7311C30.7843 21.7311 30.3975 21.6475 30.0447 21.4804C29.6919 21.3133 29.4102 21.0348 29.1998 20.6448C28.9955 20.2487 28.8934 19.7164 28.8934 19.0479V9.05787ZM41.9659 18.1287C41.9659 17.8131 41.9163 17.5345 41.8173 17.2931C41.7245 17.0456 41.5573 16.8227 41.316 16.6247C41.0807 16.4266 40.7527 16.2378 40.3318 16.0583C39.9171 15.8788 39.391 15.6962 38.7535 15.5105C38.085 15.3125 37.4815 15.0927 36.943 14.8513C36.4045 14.6038 35.9434 14.3221 35.5596 14.0065C35.1759 13.6908 34.8818 13.3287 34.6776 12.9202C34.4733 12.5117 34.3712 12.0444 34.3712 11.5182C34.3712 10.9921 34.4795 10.5062 34.6962 10.0606C34.9128 9.61493 35.2223 9.22808 35.6246 8.90003C36.0331 8.56579 36.519 8.30583 37.0823 8.12014C37.6455 7.93445 38.2738 7.84161 38.967 7.84161C39.9821 7.84161 40.8424 8.03658 41.5481 8.42652C42.2599 8.81028 42.8015 9.31473 43.1728 9.93989C43.5442 10.5588 43.7299 11.2211 43.7299 11.9268H41.9473C41.9473 11.4192 41.839 10.9705 41.6223 10.5805C41.4057 10.1844 41.0777 9.87489 40.6382 9.65207C40.1987 9.42305 39.6417 9.30854 38.967 9.30854C38.3295 9.30854 37.8033 9.40448 37.3886 9.59636C36.9739 9.78824 36.6645 10.0482 36.4602 10.3763C36.2621 10.7043 36.1631 11.0788 36.1631 11.4997C36.1631 11.7844 36.2219 12.0444 36.3395 12.2796C36.4633 12.5086 36.6521 12.7221 36.9059 12.9202C37.1658 13.1183 37.4939 13.3008 37.89 13.468C38.2923 13.6351 38.772 13.796 39.3291 13.9508C40.0966 14.1674 40.7589 14.4088 41.316 14.6749C41.873 14.9411 42.331 15.2413 42.69 15.5755C43.0552 15.9036 43.3245 16.278 43.4978 16.6989C43.6773 17.1136 43.767 17.5841 43.767 18.1102C43.767 18.6611 43.6556 19.1593 43.4328 19.605C43.21 20.0506 42.8912 20.4313 42.4765 20.747C42.0618 21.0626 41.5635 21.3071 40.9817 21.4804C40.4061 21.6475 39.7624 21.7311 39.0506 21.7311C38.4254 21.7311 37.8095 21.6444 37.203 21.4711C36.6026 21.2978 36.0548 21.0379 35.5596 20.6912C35.0706 20.3446 34.6776 19.9175 34.3805 19.41C34.0896 18.8963 33.9441 18.3021 33.9441 17.6274H35.7267C35.7267 18.0916 35.8165 18.4908 35.996 18.8251C36.1755 19.1531 36.42 19.4255 36.7294 19.6421C37.0451 19.8587 37.401 20.0197 37.7972 20.1249C38.1995 20.2239 38.6173 20.2734 39.0506 20.2734C39.6757 20.2734 40.2049 20.1868 40.6382 20.0135C41.0715 19.8402 41.3995 19.5926 41.6223 19.2707C41.8514 18.9489 41.9659 18.5682 41.9659 18.1287ZM49.9969 11.4997V12.8181H44.5655V11.4997H49.9969ZM46.4038 9.05787H48.1214V19.0572C48.1214 19.3976 48.174 19.6545 48.2793 19.8278C48.3845 20.0011 48.5207 20.1156 48.6878 20.1713C48.8549 20.227 49.0344 20.2549 49.2263 20.2549C49.3686 20.2549 49.5172 20.2425 49.6719 20.2177C49.8329 20.1868 49.9536 20.162 50.034 20.1435L50.0433 21.5454C49.9071 21.5887 49.7276 21.629 49.5048 21.6661C49.2882 21.7094 49.0251 21.7311 48.7156 21.7311C48.2947 21.7311 47.9079 21.6475 47.5551 21.4804C47.2023 21.3133 46.9206 21.0348 46.7102 20.6448C46.5059 20.2487 46.4038 19.7164 46.4038 19.0479V9.05787ZM51.371 16.634V16.4204C51.371 15.6962 51.4762 15.0247 51.6867 14.4057C51.8971 13.7805 52.2004 13.2389 52.5965 12.7809C52.9927 12.3167 53.4724 11.9577 54.0356 11.7039C54.5989 11.444 55.2302 11.314 55.9296 11.314C56.6352 11.314 57.2697 11.444 57.8329 11.7039C58.4024 11.9577 58.8852 12.3167 59.2813 12.7809C59.6836 13.2389 59.99 13.7805 60.2005 14.4057C60.4109 15.0247 60.5161 15.6962 60.5161 16.4204V16.634C60.5161 17.3581 60.4109 18.0297 60.2005 18.6487C59.99 19.2676 59.6836 19.8092 59.2813 20.2734C58.8852 20.7315 58.4055 21.0905 57.8422 21.3504C57.2852 21.6042 56.6538 21.7311 55.9482 21.7311C55.2426 21.7311 54.6081 21.6042 54.0449 21.3504C53.4816 21.0905 52.9989 20.7315 52.5965 20.2734C52.2004 19.8092 51.8971 19.2676 51.6867 18.6487C51.4762 18.0297 51.371 17.3581 51.371 16.634ZM53.0886 16.4204V16.634C53.0886 17.1353 53.1474 17.6088 53.265 18.0545C53.3826 18.4939 53.559 18.8839 53.7942 19.2243C54.0356 19.5647 54.3358 19.834 54.6948 20.032C55.0538 20.2239 55.4716 20.3199 55.9482 20.3199C56.4186 20.3199 56.8302 20.2239 57.183 20.032C57.542 19.834 57.8391 19.5647 58.0743 19.2243C58.3095 18.8839 58.4859 18.4939 58.6035 18.0545C58.7273 17.6088 58.7892 17.1353 58.7892 16.634V16.4204C58.7892 15.9252 58.7273 15.4579 58.6035 15.0185C58.4859 14.5728 58.3064 14.1798 58.065 13.8393C57.8298 13.4927 57.5327 13.2204 57.1737 13.0223C56.8209 12.8242 56.4062 12.7252 55.9296 12.7252C55.4592 12.7252 55.0445 12.8242 54.6855 13.0223C54.3327 13.2204 54.0356 13.4927 53.7942 13.8393C53.559 14.1798 53.3826 14.5728 53.265 15.0185C53.1474 15.4579 53.0886 15.9252 53.0886 16.4204ZM64.3877 13.078V21.5454H62.6701V11.4997H64.3413L64.3877 13.078ZM67.5259 11.444L67.5166 13.0409C67.3742 13.0099 67.2381 12.9914 67.1081 12.9852C66.9843 12.9728 66.8419 12.9666 66.681 12.9666C66.2849 12.9666 65.9351 13.0285 65.6318 13.1523C65.3286 13.2761 65.0717 13.4494 64.8612 13.6722C64.6508 13.895 64.4837 14.1612 64.3599 14.4707C64.2423 14.774 64.1649 15.1082 64.1278 15.4734L63.645 15.7519C63.645 15.1454 63.7038 14.5759 63.8214 14.0436C63.9452 13.5113 64.134 13.0409 64.3877 12.6324C64.6415 12.2177 64.9634 11.8958 65.3533 11.6668C65.7495 11.4316 66.2199 11.314 66.7645 11.314C66.8883 11.314 67.0307 11.3295 67.1916 11.3604C67.3526 11.3852 67.464 11.413 67.5259 11.444ZM72.1031 20.5056L74.8977 11.4997H76.736L72.7066 23.0959C72.6137 23.3435 72.4899 23.6096 72.3352 23.8944C72.1866 24.1853 71.9948 24.4607 71.7596 24.7207C71.5244 24.9806 71.2396 25.1911 70.9054 25.352C70.5774 25.5191 70.1843 25.6027 69.7263 25.6027C69.5901 25.6027 69.4168 25.5841 69.2064 25.547C68.9959 25.5099 68.8474 25.4789 68.7607 25.4542L68.7514 24.0615C68.8009 24.0677 68.8783 24.0739 68.9835 24.0801C69.0949 24.0924 69.1723 24.0986 69.2156 24.0986C69.6056 24.0986 69.9367 24.046 70.2091 23.9408C70.4814 23.8418 70.7104 23.6715 70.8961 23.4301C71.088 23.1949 71.252 22.87 71.3882 22.4553L72.1031 20.5056ZM70.0512 11.4997L72.6602 19.2986L73.1058 21.109L71.871 21.7404L68.1758 11.4997H70.0512ZM16.2573 39.634V39.4204C16.2573 38.6962 16.3625 38.0247 16.573 37.4057C16.7834 36.7805 17.0867 36.2389 17.4828 35.7809C17.879 35.3167 18.3587 34.9577 18.9219 34.7039C19.4852 34.444 20.1165 34.314 20.816 34.314C21.5216 34.314 22.156 34.444 22.7193 34.7039C23.2887 34.9577 23.7715 35.3167 24.1676 35.7809C24.57 36.2389 24.8763 36.7805 25.0868 37.4057C25.2972 38.0247 25.4025 38.6962 25.4025 39.4204V39.634C25.4025 40.3581 25.2972 41.0297 25.0868 41.6487C24.8763 42.2676 24.57 42.8092 24.1676 43.2734C23.7715 43.7315 23.2918 44.0905 22.7285 44.3504C22.1715 44.6042 21.5401 44.7311 20.8345 44.7311C20.1289 44.7311 19.4945 44.6042 18.9312 44.3504C18.368 44.0905 17.8852 43.7315 17.4828 43.2734C17.0867 42.8092 16.7834 42.2676 16.573 41.6487C16.3625 41.0297 16.2573 40.3581 16.2573 39.634ZM17.9749 39.4204V39.634C17.9749 40.1353 18.0337 40.6088 18.1513 41.0545C18.2689 41.4939 18.4453 41.8839 18.6805 42.2243C18.9219 42.5647 19.2221 42.834 19.5811 43.032C19.9401 43.2239 20.3579 43.3199 20.8345 43.3199C21.3049 43.3199 21.7165 43.2239 22.0694 43.032C22.4283 42.834 22.7254 42.5647 22.9607 42.2243C23.1959 41.8839 23.3723 41.4939 23.4899 41.0545C23.6137 40.6088 23.6756 40.1353 23.6756 39.634V39.4204C23.6756 38.9252 23.6137 38.4579 23.4899 38.0185C23.3723 37.5728 23.1928 37.1798 22.9514 36.8393C22.7162 36.4927 22.4191 36.2204 22.0601 36.0223C21.7073 35.8242 21.2926 35.7252 20.816 35.7252C20.3455 35.7252 19.9308 35.8242 19.5718 36.0223C19.219 36.2204 18.9219 36.4927 18.6805 36.8393C18.4453 37.1798 18.2689 37.5728 18.1513 38.0185C18.0337 38.4579 17.9749 38.9252 17.9749 39.4204ZM29.2741 36.6444V44.5454H27.5564V34.4997H29.1812L29.2741 36.6444ZM28.8655 39.1419L28.1506 39.114C28.1568 38.427 28.259 37.7925 28.457 37.2107C28.6551 36.6227 28.9336 36.1121 29.2926 35.6788C29.6516 35.2455 30.0787 34.9113 30.5739 34.6761C31.0752 34.4347 31.6292 34.314 32.2358 34.314C32.731 34.314 33.1766 34.3821 33.5727 34.5182C33.9689 34.6482 34.3062 34.8587 34.5847 35.1496C34.8695 35.4405 35.0861 35.8181 35.2347 36.2823C35.3832 36.7403 35.4575 37.3005 35.4575 37.9628V44.5454H33.7306V37.9442C33.7306 37.4181 33.6532 36.9972 33.4985 36.6815C33.3437 36.3596 33.1178 36.1275 32.8207 35.9852C32.5236 35.8366 32.1584 35.7623 31.7251 35.7623C31.2981 35.7623 30.9081 35.8521 30.5553 36.0316C30.2087 36.2111 29.9085 36.4587 29.6547 36.7744C29.4071 37.09 29.2122 37.4521 29.0698 37.8606C28.9336 38.263 28.8655 38.69 28.8655 39.1419ZM39.9326 30.2845V44.5454H38.2057V30.2845H39.9326ZM44.5562 34.4997V44.5454H42.8293V34.4997H44.5562ZM42.6993 31.835C42.6993 31.5565 42.7829 31.3213 42.95 31.1294C43.1233 30.9375 43.3771 30.8416 43.7113 30.8416C44.0394 30.8416 44.2901 30.9375 44.4634 31.1294C44.6429 31.3213 44.7326 31.5565 44.7326 31.835C44.7326 32.1012 44.6429 32.3302 44.4634 32.5221C44.2901 32.7078 44.0394 32.8006 43.7113 32.8006C43.3771 32.8006 43.1233 32.7078 42.95 32.5221C42.7829 32.3302 42.6993 32.1012 42.6993 31.835ZM49.0313 36.6444V44.5454H47.3137V34.4997H48.9385L49.0313 36.6444ZM48.6228 39.1419L47.9079 39.114C47.9141 38.427 48.0162 37.7925 48.2143 37.2107C48.4123 36.6227 48.6909 36.1121 49.0499 35.6788C49.4089 35.2455 49.836 34.9113 50.3311 34.6761C50.8325 34.4347 51.3865 34.314 51.993 34.314C52.4882 34.314 52.9339 34.3821 53.33 34.5182C53.7261 34.6482 54.0635 34.8587 54.342 35.1496C54.6267 35.4405 54.8434 35.8181 54.9919 36.2823C55.1405 36.7403 55.2147 37.3005 55.2147 37.9628V44.5454H53.4878V37.9442C53.4878 37.4181 53.4105 36.9972 53.2557 36.6815C53.101 36.3596 52.8751 36.1275 52.578 35.9852C52.2809 35.8366 51.9157 35.7623 51.4824 35.7623C51.0553 35.7623 50.6654 35.8521 50.3126 36.0316C49.9659 36.2111 49.6657 36.4587 49.412 36.7744C49.1644 37.09 48.9694 37.4521 48.827 37.8606C48.6909 38.263 48.6228 38.69 48.6228 39.1419ZM61.9924 44.7311C61.2929 44.7311 60.6585 44.6135 60.0891 44.3783C59.5258 44.1369 59.0399 43.7996 58.6314 43.3663C58.2291 42.933 57.9196 42.4193 57.703 41.8251C57.4863 41.2309 57.378 40.581 57.378 39.8753V39.4854C57.378 38.6684 57.4987 37.9411 57.7401 37.3036C57.9815 36.6598 58.3095 36.1152 58.7242 35.6695C59.1389 35.2239 59.6094 34.8865 60.1355 34.6575C60.6616 34.4285 61.2063 34.314 61.7695 34.314C62.4875 34.314 63.1065 34.4378 63.6264 34.6854C64.1525 34.9329 64.5827 35.2796 64.9169 35.7252C65.2512 36.1647 65.4988 36.6846 65.6597 37.285C65.8206 37.8792 65.9011 38.5291 65.9011 39.2347V40.0053H58.3993V38.6034H64.1835V38.4734C64.1587 38.0277 64.0659 37.5945 63.9049 37.1736C63.7502 36.7527 63.5026 36.4061 63.1622 36.1337C62.8218 35.8614 62.3575 35.7252 61.7695 35.7252C61.3796 35.7252 61.0206 35.8088 60.6925 35.9759C60.3645 36.1368 60.0829 36.3782 59.8477 36.7001C59.6125 37.0219 59.4299 37.415 59.2999 37.8792C59.1699 38.3434 59.1049 38.8788 59.1049 39.4854V39.8753C59.1049 40.3519 59.1699 40.8007 59.2999 41.2216C59.436 41.6363 59.631 42.0015 59.8848 42.3171C60.1448 42.6328 60.4573 42.8804 60.8225 43.0599C61.1939 43.2394 61.6148 43.3292 62.0852 43.3292C62.6918 43.3292 63.2055 43.2054 63.6264 42.9578C64.0473 42.7102 64.4156 42.379 64.7313 41.9643L65.7711 42.7907C65.5545 43.1187 65.279 43.4313 64.9448 43.7284C64.6106 44.0255 64.199 44.2669 63.71 44.4526C63.2272 44.6383 62.6546 44.7311 61.9924 44.7311Z" fill="white"/>
<mask id="path-3-inside-1_19075_52" fill="white">
<path fill-rule="evenodd" clip-rule="evenodd" d="M20.3804 43.9314C20.1302 42.9283 19.3843 41.7502 18.8032 40.4777C19.3013 41.5684 19.7993 42.659 20.3804 43.9314ZM21.7837 43.8168C20.9547 42.4569 20.4556 40.9084 19.9564 39.3599C19.5424 38.9089 19.2126 39.0974 18.8828 39.286C18.3062 39.8449 17.7285 39.946 18.3904 40.4845C19.2194 41.8444 19.8004 43.1169 20.2166 44.4836C20.3815 44.3893 20.7113 44.2007 20.8762 44.1064C21.206 43.9179 21.2879 43.6418 21.7837 43.8168ZM18.2221 39.2053C17.9719 38.2022 17.226 37.024 16.6449 35.7516C17.1429 36.8423 17.641 37.9329 18.2221 39.2053ZM15.9808 34.2974C15.8136 33.4761 14.9846 32.1161 14.4866 31.0255C14.9846 32.1161 15.3997 33.025 16.0638 34.4792C16.0638 34.4792 16.0638 34.4792 15.9808 34.2974ZM17.3841 34.1828C16.6381 33.0046 16.139 31.4561 15.5567 29.7259C15.2258 29.4566 14.896 29.6452 14.5662 29.8338C13.9896 30.3927 13.4119 30.4938 14.0738 31.0323C14.8197 32.2104 15.4838 33.6646 15.9 35.0313C16.0649 34.937 16.3947 34.7485 16.5596 34.6542C16.8064 34.2838 16.9713 34.1896 17.3841 34.1828ZM13.8225 29.5713C13.6553 28.7499 12.8263 27.39 12.3283 26.2994C12.8263 27.39 13.2414 28.2989 13.9055 29.7531L13.8225 29.5713ZM15.2258 29.4566C14.4798 28.2785 13.9806 26.73 13.3984 24.9998C13.0675 24.7305 12.7377 24.9191 12.4079 25.1077C11.8313 25.6666 11.1706 25.5859 11.9155 26.3062C12.6614 27.4843 13.3255 28.9385 13.7417 30.3052C13.9066 30.2109 14.2364 30.0223 14.3183 29.7463C14.6481 29.5577 14.813 29.4634 15.2258 29.4566ZM14.9084 34.6814C14.2476 34.6007 13.7518 34.4257 13.0911 34.345C13.7518 34.4257 14.1646 34.4189 14.9084 34.6814C13.9167 34.3314 13.173 34.0689 12.2643 33.9008C13.0081 34.1632 13.6688 34.2439 14.6605 34.5939C13.5858 34.0622 12.6772 33.894 11.8504 33.4497C12.5941 33.7122 13.3379 33.9747 14.4125 34.5064C13.5028 33.8804 12.5111 33.5304 11.5195 33.1805C12.5111 33.5304 13.5858 34.0622 14.9084 34.6814C15.1563 34.7689 15.1563 34.7689 14.9084 34.6814ZM14.5786 34.8699C14.5786 34.8699 14.4137 34.9642 14.3307 34.7825C13.0922 34.8028 12.0187 34.7289 11.0281 34.8368C11.9368 35.005 12.9273 34.8971 13.9178 34.7892C12.9273 34.8971 12.1017 34.9107 11.3591 35.1061C12.1847 35.0925 13.1752 34.9846 14.1658 34.8767C13.3401 34.8903 12.5975 35.0857 11.8549 35.2811C12.8454 35.1732 13.588 34.9778 14.4137 34.9642C13.836 35.0653 13.2582 35.1664 12.6805 35.2675C13.2582 35.1664 13.836 35.0653 14.4137 34.9642C14.5786 34.8699 14.5786 34.8699 14.5786 34.8699ZM15.0766 35.9606C14.7468 36.1492 14.5 36.5195 14.0053 36.8024C14.3351 36.6138 14.5819 36.2434 15.0766 35.9606C14.5819 36.2434 14.0053 36.8024 13.5106 37.0852C14.0053 36.8024 14.417 36.3377 14.9117 36.0549C14.2521 36.432 13.5925 36.8092 13.0159 37.3681C13.4276 36.9034 14.0872 36.5263 14.7468 36.1492C14.0872 36.5263 13.4276 36.9034 12.768 37.2806C13.4276 36.9034 14.1691 36.2502 14.9936 35.7788C15.1585 35.6845 15.2415 35.8663 15.0766 35.9606ZM15.1596 36.1424C14.9947 36.2366 14.9947 36.2366 14.9947 36.2366C14.3363 37.0716 13.8427 37.8123 13.514 38.4587C13.8427 37.8123 14.3363 37.0716 14.748 36.607C14.4193 37.2534 14.0076 37.718 13.6789 38.3644C14.0076 37.718 14.5012 36.9773 14.8298 36.3309C14.5012 36.9773 14.3374 37.5294 14.0906 37.8998C14.3374 37.5294 14.6661 36.883 14.9947 36.2366C14.831 36.7888 14.5842 37.1591 14.5023 37.4352C14.7491 37.0648 14.748 36.607 14.9947 36.2366L15.1596 36.1424ZM15.5713 35.6777C15.7362 35.5834 15.7362 35.5834 15.9011 35.4892C15.9842 35.6709 15.9842 35.6709 16.2321 35.7584C17.0611 37.1183 17.6421 38.3907 18.0583 39.7574C18.2232 39.6632 18.553 39.4746 18.7179 39.3803C18.9647 39.01 19.1296 38.9157 19.5424 38.9089C18.7964 37.7307 18.2973 36.1823 17.7151 34.452C17.3841 34.1828 17.0543 34.3713 16.7245 34.5599C16.3128 35.0245 15.9 35.0313 15.8181 35.3074C15.7351 35.1256 15.4872 35.0381 15.4042 34.8563C15.3212 34.6746 15.0733 34.5871 14.6593 34.136C13.5847 33.6043 11.8493 32.9919 10.9406 32.8237C11.1897 33.369 12.5123 33.9883 13.5869 34.52C12.5134 34.4461 11.11 34.5608 10.2855 35.0322C11.1123 35.4764 14.1669 35.3346 15.0744 35.0449C15.0744 35.0449 15.2393 34.9506 15.3223 35.1324C15.5702 35.2199 15.8181 35.3074 15.9011 35.4892C15.7362 35.5834 15.5713 35.6777 15.3234 35.5902C15.3234 35.5902 15.1585 35.6845 14.8287 35.8731C13.9212 36.1627 12.8499 37.0045 12.2733 37.5634C12.7691 37.7384 13.7586 37.1727 14.5 36.5195C14.0065 37.2602 13.431 38.2769 13.1023 38.9233C13.8449 38.728 15.1608 36.6002 15.2415 35.8663C15.4064 35.772 15.4064 35.772 15.5713 35.6777Z"/>
</mask>
<path fill-rule="evenodd" clip-rule="evenodd" d="M20.3804 43.9314C20.1302 42.9283 19.3843 41.7502 18.8032 40.4777C19.3013 41.5684 19.7993 42.659 20.3804 43.9314ZM21.7837 43.8168C20.9547 42.4569 20.4556 40.9084 19.9564 39.3599C19.5424 38.9089 19.2126 39.0974 18.8828 39.286C18.3062 39.8449 17.7285 39.946 18.3904 40.4845C19.2194 41.8444 19.8004 43.1169 20.2166 44.4836C20.3815 44.3893 20.7113 44.2007 20.8762 44.1064C21.206 43.9179 21.2879 43.6418 21.7837 43.8168ZM18.2221 39.2053C17.9719 38.2022 17.226 37.024 16.6449 35.7516C17.1429 36.8423 17.641 37.9329 18.2221 39.2053ZM15.9808 34.2974C15.8136 33.4761 14.9846 32.1161 14.4866 31.0255C14.9846 32.1161 15.3997 33.025 16.0638 34.4792C16.0638 34.4792 16.0638 34.4792 15.9808 34.2974ZM17.3841 34.1828C16.6381 33.0046 16.139 31.4561 15.5567 29.7259C15.2258 29.4566 14.896 29.6452 14.5662 29.8338C13.9896 30.3927 13.4119 30.4938 14.0738 31.0323C14.8197 32.2104 15.4838 33.6646 15.9 35.0313C16.0649 34.937 16.3947 34.7485 16.5596 34.6542C16.8064 34.2838 16.9713 34.1896 17.3841 34.1828ZM13.8225 29.5713C13.6553 28.7499 12.8263 27.39 12.3283 26.2994C12.8263 27.39 13.2414 28.2989 13.9055 29.7531L13.8225 29.5713ZM15.2258 29.4566C14.4798 28.2785 13.9806 26.73 13.3984 24.9998C13.0675 24.7305 12.7377 24.9191 12.4079 25.1077C11.8313 25.6666 11.1706 25.5859 11.9155 26.3062C12.6614 27.4843 13.3255 28.9385 13.7417 30.3052C13.9066 30.2109 14.2364 30.0223 14.3183 29.7463C14.6481 29.5577 14.813 29.4634 15.2258 29.4566ZM14.9084 34.6814C14.2476 34.6007 13.7518 34.4257 13.0911 34.345C13.7518 34.4257 14.1646 34.4189 14.9084 34.6814C13.9167 34.3314 13.173 34.0689 12.2643 33.9008C13.0081 34.1632 13.6688 34.2439 14.6605 34.5939C13.5858 34.0622 12.6772 33.894 11.8504 33.4497C12.5941 33.7122 13.3379 33.9747 14.4125 34.5064C13.5028 33.8804 12.5111 33.5304 11.5195 33.1805C12.5111 33.5304 13.5858 34.0622 14.9084 34.6814C15.1563 34.7689 15.1563 34.7689 14.9084 34.6814ZM14.5786 34.8699C14.5786 34.8699 14.4137 34.9642 14.3307 34.7825C13.0922 34.8028 12.0187 34.7289 11.0281 34.8368C11.9368 35.005 12.9273 34.8971 13.9178 34.7892C12.9273 34.8971 12.1017 34.9107 11.3591 35.1061C12.1847 35.0925 13.1752 34.9846 14.1658 34.8767C13.3401 34.8903 12.5975 35.0857 11.8549 35.2811C12.8454 35.1732 13.588 34.9778 14.4137 34.9642C13.836 35.0653 13.2582 35.1664 12.6805 35.2675C13.2582 35.1664 13.836 35.0653 14.4137 34.9642C14.5786 34.8699 14.5786 34.8699 14.5786 34.8699ZM15.0766 35.9606C14.7468 36.1492 14.5 36.5195 14.0053 36.8024C14.3351 36.6138 14.5819 36.2434 15.0766 35.9606C14.5819 36.2434 14.0053 36.8024 13.5106 37.0852C14.0053 36.8024 14.417 36.3377 14.9117 36.0549C14.2521 36.432 13.5925 36.8092 13.0159 37.3681C13.4276 36.9034 14.0872 36.5263 14.7468 36.1492C14.0872 36.5263 13.4276 36.9034 12.768 37.2806C13.4276 36.9034 14.1691 36.2502 14.9936 35.7788C15.1585 35.6845 15.2415 35.8663 15.0766 35.9606ZM15.1596 36.1424C14.9947 36.2366 14.9947 36.2366 14.9947 36.2366C14.3363 37.0716 13.8427 37.8123 13.514 38.4587C13.8427 37.8123 14.3363 37.0716 14.748 36.607C14.4193 37.2534 14.0076 37.718 13.6789 38.3644C14.0076 37.718 14.5012 36.9773 14.8298 36.3309C14.5012 36.9773 14.3374 37.5294 14.0906 37.8998C14.3374 37.5294 14.6661 36.883 14.9947 36.2366C14.831 36.7888 14.5842 37.1591 14.5023 37.4352C14.7491 37.0648 14.748 36.607 14.9947 36.2366L15.1596 36.1424ZM15.5713 35.6777C15.7362 35.5834 15.7362 35.5834 15.9011 35.4892C15.9842 35.6709 15.9842 35.6709 16.2321 35.7584C17.0611 37.1183 17.6421 38.3907 18.0583 39.7574C18.2232 39.6632 18.553 39.4746 18.7179 39.3803C18.9647 39.01 19.1296 38.9157 19.5424 38.9089C18.7964 37.7307 18.2973 36.1823 17.7151 34.452C17.3841 34.1828 17.0543 34.3713 16.7245 34.5599C16.3128 35.0245 15.9 35.0313 15.8181 35.3074C15.7351 35.1256 15.4872 35.0381 15.4042 34.8563C15.3212 34.6746 15.0733 34.5871 14.6593 34.136C13.5847 33.6043 11.8493 32.9919 10.9406 32.8237C11.1897 33.369 12.5123 33.9883 13.5869 34.52C12.5134 34.4461 11.11 34.5608 10.2855 35.0322C11.1123 35.4764 14.1669 35.3346 15.0744 35.0449C15.0744 35.0449 15.2393 34.9506 15.3223 35.1324C15.5702 35.2199 15.8181 35.3074 15.9011 35.4892C15.7362 35.5834 15.5713 35.6777 15.3234 35.5902C15.3234 35.5902 15.1585 35.6845 14.8287 35.8731C13.9212 36.1627 12.8499 37.0045 12.2733 37.5634C12.7691 37.7384 13.7586 37.1727 14.5 36.5195C14.0065 37.2602 13.431 38.2769 13.1023 38.9233C13.8449 38.728 15.1608 36.6002 15.2415 35.8663C15.4064 35.772 15.4064 35.772 15.5713 35.6777Z" fill="white"/>
<rect x="0.5" y="0.5" width="81" height="51" rx="1.5" stroke="white"/>
</svg>
