<svg width="47" height="30" viewBox="0 0 47 30" fill="none" xmlns="http://www.w3.org/2000/svg">
<path d="M4.48342 8.8645H2.14907V7.92236H4.48342C4.93549 7.92236 5.30154 7.85035 5.58159 7.70632C5.86163 7.5623 6.06566 7.36227 6.19368 7.10623C6.3257 6.85019 6.39171 6.55815 6.39171 6.2301C6.39171 5.93006 6.3257 5.64801 6.19368 5.38397C6.06566 5.11993 5.86163 4.9079 5.58159 4.74788C5.30154 4.58385 4.93549 4.50184 4.48342 4.50184H2.41911V12.291H1.26094V3.5537H4.48342C5.14352 3.5537 5.70161 3.66771 6.15767 3.89575C6.61374 4.12378 6.9598 4.43983 7.19583 4.84389C7.43187 5.24395 7.54988 5.70202 7.54988 6.2181C7.54988 6.77818 7.43187 7.25626 7.19583 7.65232C6.9598 8.04838 6.61374 8.35042 6.15767 8.55845C5.70161 8.76248 5.14352 8.8645 4.48342 8.8645ZM11.4565 12.411C11.0044 12.411 10.5943 12.335 10.2263 12.183C9.86223 12.027 9.54819 11.8089 9.28415 11.5289C9.02411 11.2489 8.82408 10.9168 8.68406 10.5328C8.54403 10.1487 8.47402 9.72863 8.47402 9.27256V9.02052C8.47402 8.49244 8.55204 8.02237 8.70806 7.61031C8.86408 7.19425 9.07611 6.84219 9.34415 6.55415C9.6122 6.26611 9.91624 6.04807 10.2563 5.90005C10.5963 5.75203 10.9484 5.67802 11.3125 5.67802C11.7765 5.67802 12.1766 5.75803 12.5126 5.91805C12.8527 6.07808 13.1307 6.30211 13.3468 6.59016C13.5628 6.8742 13.7228 7.21025 13.8268 7.59831C13.9308 7.98237 13.9829 8.40243 13.9829 8.8585V9.35657H9.13412V8.45044H12.8727V8.36642C12.8567 8.07838 12.7967 7.79834 12.6927 7.5263C12.5926 7.25426 12.4326 7.03022 12.2126 6.8542C11.9926 6.67817 11.6925 6.59016 11.3125 6.59016C11.0604 6.59016 10.8284 6.64416 10.6163 6.75218C10.4043 6.8562 10.2223 7.01222 10.0703 7.22025C9.91824 7.42828 9.80022 7.68232 9.71621 7.98237C9.6322 8.28241 9.59019 8.62846 9.59019 9.02052V9.27256C9.59019 9.58061 9.6322 9.87065 9.71621 10.1427C9.80422 10.4107 9.93024 10.6468 10.0943 10.8508C10.2623 11.0548 10.4643 11.2149 10.7004 11.3309C10.9404 11.4469 11.2124 11.5049 11.5165 11.5049C11.9085 11.5049 12.2406 11.4249 12.5126 11.2649C12.7847 11.1048 13.0227 10.8908 13.2267 10.6228L13.8988 11.1568C13.7588 11.3689 13.5808 11.5709 13.3648 11.7629C13.1487 11.955 12.8827 12.111 12.5666 12.231C12.2546 12.351 11.8845 12.411 11.4565 12.411ZM17.9975 5.79804V6.65016H14.4869V5.79804H17.9975ZM15.6751 4.2198H16.7853V10.6828C16.7853 10.9028 16.8193 11.0688 16.8873 11.1808C16.9553 11.2929 17.0433 11.3669 17.1513 11.4029C17.2593 11.4389 17.3754 11.4569 17.4994 11.4569C17.5914 11.4569 17.6874 11.4489 17.7874 11.4329C17.8914 11.4129 17.9695 11.3969 18.0215 11.3849L18.0275 12.291C17.9395 12.319 17.8234 12.345 17.6794 12.369C17.5394 12.397 17.3694 12.411 17.1693 12.411C16.8973 12.411 16.6473 12.357 16.4192 12.249C16.1912 12.141 16.0092 11.961 15.8731 11.7089C15.7411 11.4529 15.6751 11.1088 15.6751 10.6768V4.2198ZM24.1244 10.0827C24.1244 9.87865 24.0924 9.69862 24.0284 9.5426C23.9684 9.38258 23.8603 9.23856 23.7043 9.11054C23.5523 8.98252 23.3403 8.8605 23.0682 8.74448C22.8002 8.62846 22.4601 8.51045 22.0481 8.39043C21.616 8.26241 21.2259 8.12039 20.8779 7.96436C20.5298 7.80434 20.2318 7.62231 19.9838 7.41828C19.7357 7.21425 19.5457 6.98021 19.4137 6.71617C19.2817 6.45213 19.2156 6.15009 19.2156 5.81004C19.2156 5.46999 19.2857 5.15594 19.4257 4.8679C19.5657 4.57985 19.7657 4.32981 20.0258 4.11778C20.2898 3.90175 20.6039 3.73372 20.9679 3.61371C21.332 3.49369 21.738 3.43368 22.1861 3.43368C22.8422 3.43368 23.3983 3.5597 23.8543 3.81174C24.3144 4.05977 24.6645 4.38582 24.9045 4.78988C25.1445 5.18994 25.2646 5.61801 25.2646 6.07408H24.1124C24.1124 5.74603 24.0424 5.45598 23.9024 5.20395C23.7623 4.94791 23.5503 4.74788 23.2663 4.60386C22.9822 4.45583 22.6222 4.38182 22.1861 4.38182C21.774 4.38182 21.434 4.44383 21.1659 4.56785C20.8979 4.69187 20.6979 4.85989 20.5658 5.07193C20.4378 5.28396 20.3738 5.526 20.3738 5.79804C20.3738 5.98206 20.4118 6.15009 20.4878 6.30211C20.5678 6.45013 20.6899 6.58816 20.8539 6.71617C21.0219 6.84419 21.2339 6.96221 21.49 7.07023C21.75 7.17824 22.0601 7.28226 22.4201 7.38228C22.9162 7.5223 23.3443 7.67832 23.7043 7.85035C24.0644 8.02237 24.3604 8.2164 24.5925 8.43243C24.8285 8.64447 25.0025 8.8865 25.1145 9.15854C25.2306 9.42658 25.2886 9.73063 25.2886 10.0707C25.2886 10.4267 25.2165 10.7488 25.0725 11.0368C24.9285 11.3249 24.7225 11.5709 24.4544 11.7749C24.1864 11.979 23.8643 12.137 23.4883 12.249C23.1162 12.357 22.7002 12.411 22.2401 12.411C21.836 12.411 21.438 12.355 21.0459 12.243C20.6579 12.131 20.3038 11.963 19.9838 11.7389C19.6677 11.5149 19.4137 11.2389 19.2216 10.9108C19.0336 10.5788 18.9396 10.1947 18.9396 9.75863H20.0918C20.0918 10.0587 20.1498 10.3167 20.2658 10.5328C20.3818 10.7448 20.5398 10.9208 20.7399 11.0608C20.9439 11.2009 21.1739 11.3049 21.43 11.3729C21.69 11.4369 21.9601 11.4689 22.2401 11.4689C22.6442 11.4689 22.9862 11.4129 23.2663 11.3009C23.5463 11.1888 23.7583 11.0288 23.9024 10.8208C24.0504 10.6128 24.1244 10.3667 24.1244 10.0827ZM29.3152 5.79804V6.65016H25.8046V5.79804H29.3152ZM26.9928 4.2198H28.103V10.6828C28.103 10.9028 28.137 11.0688 28.205 11.1808C28.273 11.2929 28.361 11.3669 28.469 11.4029C28.5771 11.4389 28.6931 11.4569 28.8171 11.4569C28.9091 11.4569 29.0051 11.4489 29.1051 11.4329C29.2092 11.4129 29.2872 11.3969 29.3392 11.3849L29.3452 12.291C29.2572 12.319 29.1411 12.345 28.9971 12.369C28.8571 12.397 28.6871 12.411 28.487 12.411C28.215 12.411 27.965 12.357 27.7369 12.249C27.5089 12.141 27.3269 11.961 27.1908 11.7089C27.0588 11.4529 26.9928 11.1088 26.9928 10.6768V4.2198ZM30.2033 9.11654V8.97852C30.2033 8.51045 30.2713 8.07638 30.4073 7.67632C30.5434 7.27226 30.7394 6.92221 30.9954 6.62616C31.2515 6.32612 31.5615 6.09408 31.9256 5.93006C32.2896 5.76203 32.6977 5.67802 33.1497 5.67802C33.6058 5.67802 34.0159 5.76203 34.3799 5.93006C34.748 6.09408 35.06 6.32612 35.3161 6.62616C35.5761 6.92221 35.7741 7.27226 35.9102 7.67632C36.0462 8.07638 36.1142 8.51045 36.1142 8.97852V9.11654C36.1142 9.58461 36.0462 10.0187 35.9102 10.4187C35.7741 10.8188 35.5761 11.1688 35.3161 11.4689C35.06 11.7649 34.75 11.997 34.3859 12.165C34.0259 12.329 33.6178 12.411 33.1617 12.411C32.7057 12.411 32.2956 12.329 31.9316 12.165C31.5675 11.997 31.2555 11.7649 30.9954 11.4689C30.7394 11.1688 30.5434 10.8188 30.4073 10.4187C30.2713 10.0187 30.2033 9.58461 30.2033 9.11654ZM31.3135 8.97852V9.11654C31.3135 9.44059 31.3515 9.74663 31.4275 10.0347C31.5035 10.3187 31.6175 10.5708 31.7695 10.7908C31.9256 11.0108 32.1196 11.1848 32.3516 11.3129C32.5837 11.4369 32.8537 11.4989 33.1617 11.4989C33.4658 11.4989 33.7318 11.4369 33.9599 11.3129C34.1919 11.1848 34.3839 11.0108 34.536 10.7908C34.688 10.5708 34.802 10.3187 34.878 10.0347C34.958 9.74663 34.998 9.44059 34.998 9.11654V8.97852C34.998 8.65847 34.958 8.35642 34.878 8.07238C34.802 7.78434 34.686 7.5303 34.53 7.31026C34.3779 7.08623 34.1859 6.9102 33.9539 6.78218C33.7258 6.65417 33.4578 6.59016 33.1497 6.59016C32.8457 6.59016 32.5777 6.65417 32.3456 6.78218C32.1176 6.9102 31.9256 7.08623 31.7695 7.31026C31.6175 7.5303 31.5035 7.78434 31.4275 8.07238C31.3515 8.35642 31.3135 8.65847 31.3135 8.97852ZM38.6166 6.81819V12.291H37.5064V5.79804H38.5866L38.6166 6.81819ZM40.6449 5.76203L40.6389 6.79419C40.5469 6.77418 40.4589 6.76218 40.3748 6.75818C40.2948 6.75018 40.2028 6.74618 40.0988 6.74618C39.8428 6.74618 39.6167 6.78619 39.4207 6.8662C39.2247 6.94621 39.0586 7.05823 38.9226 7.20225C38.7866 7.34627 38.6786 7.5183 38.5986 7.71833C38.5226 7.91436 38.4726 8.13039 38.4485 8.36642L38.1365 8.54645C38.1365 8.15439 38.1745 7.78634 38.2505 7.44228C38.3305 7.09823 38.4525 6.79419 38.6166 6.53015C38.7806 6.26211 38.9886 6.05407 39.2407 5.90605C39.4967 5.75403 39.8008 5.67802 40.1528 5.67802C40.2328 5.67802 40.3248 5.68802 40.4288 5.70802C40.5329 5.72402 40.6049 5.74203 40.6449 5.76203ZM43.6033 11.6189L45.4096 5.79804H46.5978L43.9934 13.2932C43.9334 13.4532 43.8534 13.6252 43.7533 13.8092C43.6573 13.9973 43.5333 14.1753 43.3813 14.3433C43.2293 14.5114 43.0452 14.6474 42.8292 14.7514C42.6172 14.8594 42.3631 14.9134 42.0671 14.9134C41.9791 14.9134 41.8671 14.9014 41.731 14.8774C41.595 14.8534 41.499 14.8334 41.443 14.8174L41.437 13.9173C41.469 13.9213 41.519 13.9253 41.587 13.9293C41.659 13.9373 41.709 13.9413 41.737 13.9413C41.9891 13.9413 42.2031 13.9073 42.3791 13.8392C42.5552 13.7752 42.7032 13.6652 42.8232 13.5092C42.9472 13.3572 43.0532 13.1471 43.1413 12.8791L43.6033 11.6189ZM42.2771 5.79804L43.9634 10.8388L44.2514 12.009L43.4533 12.417L41.0649 5.79804H42.2771ZM7.50788 24.1165V23.9785C7.50788 23.5104 7.57589 23.0764 7.71191 22.6763C7.84793 22.2723 8.04396 21.9222 8.3 21.6262C8.55603 21.3261 8.86608 21.0941 9.23014 20.9301C9.59419 20.762 10.0023 20.678 10.4543 20.678C10.9104 20.678 11.3205 20.762 11.6845 20.9301C12.0526 21.0941 12.3646 21.3261 12.6206 21.6262C12.8807 21.9222 13.0787 22.2723 13.2147 22.6763C13.3508 23.0764 13.4188 23.5104 13.4188 23.9785V24.1165C13.4188 24.5846 13.3508 25.0187 13.2147 25.4187C13.0787 25.8188 12.8807 26.1688 12.6206 26.4689C12.3646 26.7649 12.0546 26.997 11.6905 27.165C11.3305 27.329 10.9224 27.411 10.4663 27.411C10.0103 27.411 9.60019 27.329 9.23614 27.165C8.87208 26.997 8.56004 26.7649 8.3 26.4689C8.04396 26.1688 7.84793 25.8188 7.71191 25.4187C7.57589 25.0187 7.50788 24.5846 7.50788 24.1165ZM8.61804 23.9785V24.1165C8.61804 24.4406 8.65605 24.7466 8.73206 25.0347C8.80807 25.3187 8.92209 25.5708 9.07411 25.7908C9.23014 26.0108 9.42417 26.1848 9.6562 26.3129C9.88824 26.4369 10.1583 26.4989 10.4663 26.4989C10.7704 26.4989 11.0364 26.4369 11.2644 26.3129C11.4965 26.1848 11.6885 26.0108 11.8405 25.7908C11.9926 25.5708 12.1066 25.3187 12.1826 25.0347C12.2626 24.7466 12.3026 24.4406 12.3026 24.1165V23.9785C12.3026 23.6585 12.2626 23.3564 12.1826 23.0724C12.1066 22.7843 11.9906 22.5303 11.8345 22.3103C11.6825 22.0862 11.4905 21.9102 11.2584 21.7822C11.0304 21.6542 10.7624 21.5902 10.4543 21.5902C10.1503 21.5902 9.88223 21.6542 9.6502 21.7822C9.42217 21.9102 9.23014 22.0862 9.07411 22.3103C8.92209 22.5303 8.80807 22.7843 8.73206 23.0724C8.65605 23.3564 8.61804 23.6585 8.61804 23.9785ZM15.9211 22.1842V27.291H14.811V20.798H15.8611L15.9211 22.1842ZM15.6571 23.7985L15.195 23.7805C15.199 23.3364 15.265 22.9264 15.3931 22.5503C15.5211 22.1702 15.7011 21.8402 15.9331 21.5602C16.1652 21.2801 16.4412 21.0641 16.7613 20.9121C17.0853 20.756 17.4434 20.678 17.8354 20.678C18.1555 20.678 18.4435 20.722 18.6996 20.81C18.9556 20.8941 19.1736 21.0301 19.3537 21.2181C19.5377 21.4061 19.6777 21.6502 19.7737 21.9502C19.8697 22.2463 19.9177 22.6083 19.9177 23.0364V27.291H18.8016V23.0244C18.8016 22.6843 18.7516 22.4123 18.6516 22.2082C18.5515 22.0002 18.4055 21.8502 18.2135 21.7582C18.0215 21.6622 17.7854 21.6142 17.5054 21.6142C17.2293 21.6142 16.9773 21.6722 16.7493 21.7882C16.5252 21.9042 16.3312 22.0642 16.1672 22.2683C16.0072 22.4723 15.8811 22.7063 15.7891 22.9704C15.7011 23.2304 15.6571 23.5064 15.6571 23.7985ZM22.8102 18.0736V27.291H21.694V18.0736H22.8102ZM25.7986 20.798V27.291H24.6825V20.798H25.7986ZM24.5985 19.0758C24.5985 18.8957 24.6525 18.7437 24.7605 18.6197C24.8725 18.4957 25.0365 18.4337 25.2526 18.4337C25.4646 18.4337 25.6266 18.4957 25.7386 18.6197C25.8546 18.7437 25.9127 18.8957 25.9127 19.0758C25.9127 19.2478 25.8546 19.3958 25.7386 19.5198C25.6266 19.6399 25.4646 19.6999 25.2526 19.6999C25.0365 19.6999 24.8725 19.6399 24.7605 19.5198C24.6525 19.3958 24.5985 19.2478 24.5985 19.0758ZM28.6911 22.1842V27.291H27.5809V20.798H28.6311L28.6911 22.1842ZM28.427 23.7985L27.965 23.7805C27.969 23.3364 28.035 22.9264 28.163 22.5503C28.291 22.1702 28.471 21.8402 28.7031 21.5602C28.9351 21.2801 29.2112 21.0641 29.5312 20.9121C29.8552 20.756 30.2133 20.678 30.6054 20.678C30.9254 20.678 31.2135 20.722 31.4695 20.81C31.7255 20.8941 31.9436 21.0301 32.1236 21.2181C32.3076 21.4061 32.4476 21.6502 32.5437 21.9502C32.6397 22.2463 32.6877 22.6083 32.6877 23.0364V27.291H31.5715V23.0244C31.5715 22.6843 31.5215 22.4123 31.4215 22.2082C31.3215 22.0002 31.1754 21.8502 30.9834 21.7582C30.7914 21.6622 30.5554 21.6142 30.2753 21.6142C29.9993 21.6142 29.7472 21.6722 29.5192 21.7882C29.2952 21.9042 29.1011 22.0642 28.9371 22.2683C28.7771 22.4723 28.6511 22.7063 28.5591 22.9704C28.471 23.2304 28.427 23.5064 28.427 23.7985ZM37.0683 27.411C36.6163 27.411 36.2062 27.335 35.8382 27.183C35.4741 27.027 35.16 26.8089 34.896 26.5289C34.636 26.2489 34.4359 25.9168 34.2959 25.5328C34.1559 25.1487 34.0859 24.7286 34.0859 24.2726V24.0205C34.0859 23.4924 34.1639 23.0224 34.3199 22.6103C34.4759 22.1942 34.688 21.8422 34.956 21.5542C35.2241 21.2661 35.5281 21.0481 35.8682 20.9001C36.2082 20.752 36.5603 20.678 36.9243 20.678C37.3884 20.678 37.7884 20.758 38.1245 20.9181C38.4645 21.0781 38.7426 21.3021 38.9586 21.5902C39.1747 21.8742 39.3347 22.2102 39.4387 22.5983C39.5427 22.9824 39.5947 23.4024 39.5947 23.8585V24.3566H34.746V23.4504H38.4845V23.3664C38.4685 23.0784 38.4085 22.7983 38.3045 22.5263C38.2045 22.2543 38.0445 22.0302 37.8244 21.8542C37.6044 21.6782 37.3044 21.5902 36.9243 21.5902C36.6723 21.5902 36.4402 21.6442 36.2282 21.7522C36.0162 21.8562 35.8341 22.0122 35.6821 22.2203C35.5301 22.4283 35.4121 22.6823 35.3281 22.9824C35.2441 23.2824 35.2021 23.6285 35.2021 24.0205V24.2726C35.2021 24.5806 35.2441 24.8707 35.3281 25.1427C35.4161 25.4107 35.5421 25.6468 35.7061 25.8508C35.8742 26.0548 36.0762 26.2149 36.3122 26.3309C36.5523 26.4469 36.8243 26.5049 37.1283 26.5049C37.5204 26.5049 37.8525 26.4249 38.1245 26.2649C38.3965 26.1048 38.6346 25.8908 38.8386 25.6228L39.5107 26.1568C39.3707 26.3689 39.1927 26.5709 38.9766 26.7629C38.7606 26.955 38.4946 27.111 38.1785 27.231C37.8665 27.351 37.4964 27.411 37.0683 27.411Z" fill="white"/>

<mask id="path-3-inside-1_150_2657" fill="white">
<path fill-rule="evenodd" clip-rule="evenodd" d="M10.1728 26.7486C10.0111 26.1003 9.52892 25.3388 9.15335 24.5164C9.47527 25.2213 9.79719 25.9262 10.1728 26.7486ZM11.0798 26.6745C10.544 25.7956 10.2213 24.7947 9.8987 23.7939C9.63115 23.5023 9.41799 23.6242 9.20482 23.7461C8.83215 24.1074 8.45875 24.1727 8.88653 24.5208C9.42234 25.3997 9.79792 26.2221 10.0669 27.1055C10.1735 27.0446 10.3867 26.9227 10.4932 26.8617C10.7064 26.7399 10.7593 26.5614 11.0798 26.6745ZM8.77777 23.694C8.61608 23.0456 8.13392 22.2841 7.75835 21.4617C8.08027 22.1666 8.40219 22.8715 8.77777 23.694ZM7.32912 20.5218C7.22108 19.9909 6.68527 19.1119 6.36335 18.407C6.68527 19.1119 6.95354 19.6994 7.38277 20.6393C7.38277 20.6393 7.38277 20.6393 7.32912 20.5218ZM8.23615 20.4477C7.75399 19.6862 7.43135 18.6853 7.05504 17.567C6.84115 17.393 6.62799 17.5149 6.41482 17.6367C6.04215 17.998 5.66875 18.0633 6.09653 18.4114C6.57869 19.1729 7.00792 20.1128 7.27691 20.9961C7.38349 20.9352 7.59666 20.8133 7.70324 20.7524C7.86275 20.513 7.96933 20.4521 8.23615 20.4477ZM5.93412 17.4671C5.82608 16.9362 5.29027 16.0572 4.96835 15.3523C5.29027 16.0572 5.55854 16.6447 5.98777 17.5846L5.93412 17.4671ZM6.84115 17.393C6.35899 16.6315 6.03634 15.6307 5.66004 14.5123C5.44615 14.3383 5.23299 14.4602 5.01982 14.582C4.64715 14.9433 4.22009 14.8911 4.70153 15.3567C5.18369 16.1182 5.61292 17.0581 5.88191 17.9414C5.98849 17.8805 6.20166 17.7586 6.25459 17.5802C6.46775 17.4583 6.57433 17.3974 6.84115 17.393ZM6.63597 20.7699C6.20891 20.7178 5.88844 20.6047 5.46139 20.5525C5.88844 20.6047 6.15526 20.6003 6.63597 20.7699C5.99502 20.5437 5.51432 20.3741 4.92702 20.2654C5.40773 20.435 5.83479 20.4872 6.47573 20.7134C5.78113 20.3697 5.19384 20.261 4.65948 19.9739C5.14019 20.1435 5.6209 20.3132 6.3155 20.6568C5.72748 20.2522 5.08654 20.026 4.44559 19.7998C5.08654 20.026 5.78113 20.3697 6.63597 20.7699C6.7962 20.8265 6.7962 20.8265 6.63597 20.7699ZM6.4228 20.8918C6.4228 20.8918 6.31622 20.9528 6.26257 20.8353C5.46211 20.8484 4.76824 20.8007 4.12802 20.8704C4.71531 20.9791 5.35553 20.9094 5.99575 20.8397C5.35553 20.9094 4.82189 20.9182 4.34191 21.0444C4.87555 21.0357 5.51577 20.9659 6.15599 20.8962C5.62235 20.905 5.14237 21.0313 4.66238 21.1575C5.3026 21.0878 5.78258 20.9615 6.31622 20.9528C5.94282 21.0181 5.56942 21.0834 5.19602 21.1488C5.56942 21.0834 5.94282 21.0181 6.31622 20.9528C6.4228 20.8918 6.4228 20.8918 6.4228 20.8918ZM6.74473 21.5967C6.53156 21.7186 6.37205 21.958 6.0523 22.1408C6.26547 22.0189 6.42498 21.7796 6.74473 21.5967C6.42498 21.7796 6.0523 22.1408 5.73256 22.3236C6.0523 22.1408 6.3184 21.8405 6.63814 21.6577C6.21182 21.9014 5.78549 22.1452 5.41281 22.5065C5.6789 22.2061 6.10523 21.9624 6.53156 21.7186C6.10523 21.9624 5.6789 22.2061 5.25258 22.4499C5.6789 22.2061 6.15816 21.784 6.69107 21.4793C6.79766 21.4183 6.85131 21.5358 6.74473 21.5967ZM6.79838 21.7142C6.6918 21.7752 6.6918 21.7752 6.6918 21.7752C6.26619 22.3148 5.94717 22.7936 5.73473 23.2114C5.94717 22.7936 6.26619 22.3148 6.53229 22.0145C6.31985 22.4323 6.05376 22.7326 5.84132 23.1504C6.05376 22.7326 6.37278 22.2539 6.58522 21.8361C6.37278 22.2539 6.26692 22.6108 6.10741 22.8501C6.26692 22.6108 6.47936 22.193 6.6918 21.7752C6.58594 22.132 6.42643 22.3714 6.3735 22.5498C6.53301 22.3105 6.53229 22.0145 6.6918 21.7752L6.79838 21.7142ZM7.06447 21.4139C7.17106 21.353 7.17106 21.353 7.27764 21.292C7.33129 21.4095 7.33129 21.4095 7.49153 21.4661C8.02734 22.345 8.40292 23.1675 8.67191 24.0508C8.7785 23.9899 8.99166 23.868 9.09824 23.807C9.25775 23.5677 9.36434 23.5067 9.63115 23.5023C9.14899 22.7409 8.82635 21.74 8.45004 20.6217C8.23615 20.4477 8.02299 20.5695 7.80982 20.6914C7.54373 20.9917 7.27691 20.9961 7.22398 21.1746C7.17033 21.0571 7.01009 21.0005 6.95644 20.883C6.90279 20.7655 6.74255 20.709 6.47501 20.4175C5.78041 20.0738 4.65876 19.678 4.07146 19.5693C4.23243 19.9217 5.08726 20.3219 5.78186 20.6656C5.08799 20.6179 4.18095 20.692 3.64804 20.9967C4.1824 21.2838 6.15671 21.1921 6.74328 21.0049C6.74328 21.0049 6.84986 20.944 6.90351 21.0615C7.06375 21.118 7.22398 21.1746 7.27764 21.292C7.17106 21.353 7.06447 21.4139 6.90424 21.3574C6.90424 21.3574 6.79766 21.4183 6.58449 21.5402C5.99793 21.7274 5.3055 22.2715 4.93283 22.6327C5.2533 22.7458 5.89279 22.3802 6.37205 21.958C6.05303 22.4367 5.68108 23.0939 5.46864 23.5117C5.94862 23.3854 6.79911 22.0101 6.85131 21.5358C6.95789 21.4749 6.95789 21.4749 7.06447 21.4139Z"/>
</mask>
<path fill-rule="evenodd" clip-rule="evenodd" d="M10.1728 26.7486C10.0111 26.1003 9.52892 25.3388 9.15335 24.5164C9.47527 25.2213 9.79719 25.9262 10.1728 26.7486ZM11.0798 26.6745C10.544 25.7956 10.2213 24.7947 9.8987 23.7939C9.63115 23.5023 9.41799 23.6242 9.20482 23.7461C8.83215 24.1074 8.45875 24.1727 8.88653 24.5208C9.42234 25.3997 9.79792 26.2221 10.0669 27.1055C10.1735 27.0446 10.3867 26.9227 10.4932 26.8617C10.7064 26.7399 10.7593 26.5614 11.0798 26.6745ZM8.77777 23.694C8.61608 23.0456 8.13392 22.2841 7.75835 21.4617C8.08027 22.1666 8.40219 22.8715 8.77777 23.694ZM7.32912 20.5218C7.22108 19.9909 6.68527 19.1119 6.36335 18.407C6.68527 19.1119 6.95354 19.6994 7.38277 20.6393C7.38277 20.6393 7.38277 20.6393 7.32912 20.5218ZM8.23615 20.4477C7.75399 19.6862 7.43135 18.6853 7.05504 17.567C6.84115 17.393 6.62799 17.5149 6.41482 17.6367C6.04215 17.998 5.66875 18.0633 6.09653 18.4114C6.57869 19.1729 7.00792 20.1128 7.27691 20.9961C7.38349 20.9352 7.59666 20.8133 7.70324 20.7524C7.86275 20.513 7.96933 20.4521 8.23615 20.4477ZM5.93412 17.4671C5.82608 16.9362 5.29027 16.0572 4.96835 15.3523C5.29027 16.0572 5.55854 16.6447 5.98777 17.5846L5.93412 17.4671ZM6.84115 17.393C6.35899 16.6315 6.03634 15.6307 5.66004 14.5123C5.44615 14.3383 5.23299 14.4602 5.01982 14.582C4.64715 14.9433 4.22009 14.8911 4.70153 15.3567C5.18369 16.1182 5.61292 17.0581 5.88191 17.9414C5.98849 17.8805 6.20166 17.7586 6.25459 17.5802C6.46775 17.4583 6.57433 17.3974 6.84115 17.393ZM6.63597 20.7699C6.20891 20.7178 5.88844 20.6047 5.46139 20.5525C5.88844 20.6047 6.15526 20.6003 6.63597 20.7699C5.99502 20.5437 5.51432 20.3741 4.92702 20.2654C5.40773 20.435 5.83479 20.4872 6.47573 20.7134C5.78113 20.3697 5.19384 20.261 4.65948 19.9739C5.14019 20.1435 5.6209 20.3132 6.3155 20.6568C5.72748 20.2522 5.08654 20.026 4.44559 19.7998C5.08654 20.026 5.78113 20.3697 6.63597 20.7699C6.7962 20.8265 6.7962 20.8265 6.63597 20.7699ZM6.4228 20.8918C6.4228 20.8918 6.31622 20.9528 6.26257 20.8353C5.46211 20.8484 4.76824 20.8007 4.12802 20.8704C4.71531 20.9791 5.35553 20.9094 5.99575 20.8397C5.35553 20.9094 4.82189 20.9182 4.34191 21.0444C4.87555 21.0357 5.51577 20.9659 6.15599 20.8962C5.62235 20.905 5.14237 21.0313 4.66238 21.1575C5.3026 21.0878 5.78258 20.9615 6.31622 20.9528C5.94282 21.0181 5.56942 21.0834 5.19602 21.1488C5.56942 21.0834 5.94282 21.0181 6.31622 20.9528C6.4228 20.8918 6.4228 20.8918 6.4228 20.8918ZM6.74473 21.5967C6.53156 21.7186 6.37205 21.958 6.0523 22.1408C6.26547 22.0189 6.42498 21.7796 6.74473 21.5967C6.42498 21.7796 6.0523 22.1408 5.73256 22.3236C6.0523 22.1408 6.3184 21.8405 6.63814 21.6577C6.21182 21.9014 5.78549 22.1452 5.41281 22.5065C5.6789 22.2061 6.10523 21.9624 6.53156 21.7186C6.10523 21.9624 5.6789 22.2061 5.25258 22.4499C5.6789 22.2061 6.15816 21.784 6.69107 21.4793C6.79766 21.4183 6.85131 21.5358 6.74473 21.5967ZM6.79838 21.7142C6.6918 21.7752 6.6918 21.7752 6.6918 21.7752C6.26619 22.3148 5.94717 22.7936 5.73473 23.2114C5.94717 22.7936 6.26619 22.3148 6.53229 22.0145C6.31985 22.4323 6.05376 22.7326 5.84132 23.1504C6.05376 22.7326 6.37278 22.2539 6.58522 21.8361C6.37278 22.2539 6.26692 22.6108 6.10741 22.8501C6.26692 22.6108 6.47936 22.193 6.6918 21.7752C6.58594 22.132 6.42643 22.3714 6.3735 22.5498C6.53301 22.3105 6.53229 22.0145 6.6918 21.7752L6.79838 21.7142ZM7.06447 21.4139C7.17106 21.353 7.17106 21.353 7.27764 21.292C7.33129 21.4095 7.33129 21.4095 7.49153 21.4661C8.02734 22.345 8.40292 23.1675 8.67191 24.0508C8.7785 23.9899 8.99166 23.868 9.09824 23.807C9.25775 23.5677 9.36434 23.5067 9.63115 23.5023C9.14899 22.7409 8.82635 21.74 8.45004 20.6217C8.23615 20.4477 8.02299 20.5695 7.80982 20.6914C7.54373 20.9917 7.27691 20.9961 7.22398 21.1746C7.17033 21.0571 7.01009 21.0005 6.95644 20.883C6.90279 20.7655 6.74255 20.709 6.47501 20.4175C5.78041 20.0738 4.65876 19.678 4.07146 19.5693C4.23243 19.9217 5.08726 20.3219 5.78186 20.6656C5.08799 20.6179 4.18095 20.692 3.64804 20.9967C4.1824 21.2838 6.15671 21.1921 6.74328 21.0049C6.74328 21.0049 6.84986 20.944 6.90351 21.0615C7.06375 21.118 7.22398 21.1746 7.27764 21.292C7.17106 21.353 7.06447 21.4139 6.90424 21.3574C6.90424 21.3574 6.79766 21.4183 6.58449 21.5402C5.99793 21.7274 5.3055 22.2715 4.93283 22.6327C5.2533 22.7458 5.89279 22.3802 6.37205 21.958C6.05303 22.4367 5.68108 23.0939 5.46864 23.5117C5.94862 23.3854 6.79911 22.0101 6.85131 21.5358C6.95789 21.4749 6.95789 21.4749 7.06447 21.4139Z" fill="white"/>
</svg>
